<?xml version="1.0" encoding="UTF-8" standalone="no"?>
<svg
   version="1.1"
   id="Layer_1"
   x="0px"
   y="0px"
   width="100%"
   viewBox="0 0 512 512"
   enable-background="new 0 0 512 512"
   xml:space="preserve"
   sodipodi:docname="Leonardo_Diffusion_XL_Favicon_of_a_Cromwell_tank_for_a_browser_2 (1), high contrast.svg"
   inkscape:version="1.3.2 (091e20e, 2023-11-25, custom)"
   xmlns:inkscape="http://www.inkscape.org/namespaces/inkscape"
   xmlns:sodipodi="http://sodipodi.sourceforge.net/DTD/sodipodi-0.dtd"
   xmlns="http://www.w3.org/2000/svg"
   xmlns:svg="http://www.w3.org/2000/svg"><defs
   id="defs7" /><sodipodi:namedview
   id="namedview7"
   pagecolor="#ffffff"
   bordercolor="#999999"
   borderopacity="1"
   inkscape:showpageshadow="2"
   inkscape:pageopacity="0"
   inkscape:pagecheckerboard="0"
   inkscape:deskcolor="#d1d1d1"
   inkscape:zoom="1.1131408"
   inkscape:cx="362.93703"
   inkscape:cy="301.84862"
   inkscape:window-width="1920"
   inkscape:window-height="1002"
   inkscape:window-x="-8"
   inkscape:window-y="-8"
   inkscape:window-maximized="1"
   inkscape:current-layer="Layer_1" />
<rect
   style="fill:#f3c3bf;fill-opacity:1;stroke-width:0.944901"
   id="rect7"
   width="512"
   height="512"
   x="0"
   y="0"
   inkscape:export-filename="Favicon64.png"
   inkscape:export-xdpi="12"
   inkscape:export-ydpi="12" /><path
   fill="#000000"
   opacity="1"
   stroke="none"
   d="m 104.51618,315.52644 c -11.118596,-6.46036 -22.079696,-12.48205 -32.648796,-19.12713 -5.7434,-3.61097 -10.9681,-8.1088 -16.149504,-12.53138 -3.9333,-3.35727 -3.4352,-5.98785 1.0274,-8.40612 0.4387,-0.23771 0.9154,-0.40528 1.3529,-0.64478 7.335504,-4.01535 7.731504,-5.29635 4.405604,-12.92523 -1.7939,-4.11493 -3.582704,-8.24835 -5.039704,-12.48825 -0.9862,-2.86995 -2.5337,-4.22171 -5.6203,-4.72981 -7.0383,-1.15859 -7.6704,-2.41355 -5.7909,-9.19381 1.7886,-6.45225 4.9062,-12.36319 7.5653,-18.45874 0.8945,-2.05061 2.4345,-3.25042 4.6783,-4.10257 7.061004,-2.68162 14.934604,-3.85894 20.195904,-10.14946 0.099,-0.11837 0.2802,-0.22076 0.432,-0.2348 12.5873,-1.1653 21.013,-11.21142 32.489596,-15.11001 12.8458,-4.36371 25.1752,-10.36823 37.4421,-16.2569 5.0324,-2.41577 9.402,-6.0678 15.3393,-6.43503 1.9466,-0.12039 2.9537,-2.06859 3.6541,-3.79434 1.4985,-3.69196 2.8902,-7.42719 4.3343,-11.14131 3.0401,-7.81882 7.72,-13.56522 16.9977,-13.70262 1.28,-0.019 2.6191,-0.46023 3.816,-0.97382 9.3206,-3.99973 18.9265,-7.36855 27.7893,-12.38547 2.2697,-1.28477 4.6538,-1.59517 7.2045,-1.58969 16.6643,0.0358 33.329,0.0496 49.993,-0.0383 2.7837,-0.0147 5.1312,0.8036 7.5678,2.046 15.4089,7.85667 30.4853,16.46175 47.2169,21.40903 3.3168,0.98073 5.1677,3.43756 6.4245,6.51204 3.2119,7.85798 6.9889,15.53167 9.5549,23.5926 2.1635,6.79634 6.9982,10.44895 12.7043,13.15872 9.16197,4.35097 18.59247,8.14142 27.94757,12.0785 3.098,1.30378 5.7895,2.53251 7.2704,6.13879 1.4521,3.53604 4.2637,5.96924 8.734,6.49136 5.8425,0.68238 11.2429,3.58617 15.913,6.81581 8.1451,5.63285 16.729,10.1766 25.8407,13.87241 2.7672,1.12245 3.8136,3.5139 4.6651,6.1178 3.1661,9.68301 8.2281,18.41916 13.7088,26.918 2.2212,3.44439 1.7732,6.35379 -2.3156,7.26401 -5.9137,1.31652 -6.24,4.37023 -4.7284,9.31616 1.1337,3.70959 0.9253,7.62689 -1.9839,10.81506 -0.6974,0.76413 -1.1911,1.60416 -1.0622,2.68823 0.4125,3.46598 -1.7913,4.33847 -4.5655,4.46439 -4.5623,0.207 -8.6075,2.19427 -12.8586,3.57449 4.5889,0.6677 8.6639,-3.33355 14.019,-1.69195 -4.2691,7.40139 -10.8504,11.13192 -17.6959,14.62555 1.3974,3.84802 4.7371,4.32272 7.5062,5.57861 4.2602,1.93213 4.7732,4.24869 0.7798,6.67868 -8.0985,4.92798 -15.7198,10.87076 -26.5957,8.45398 -14.5082,-3.22391 -27.4834,3.73764 -40.5275,8.35312 -26.36557,9.32913 -52.45127,19.44858 -78.66377,29.21179 -2.2122,0.82397 -4.293,1.82013 -6.0778,3.37155 -5.9067,5.13428 -13.5909,6.91571 -20.2627,10.6297 -2.9871,1.66275 -6.812,1.59467 -10.2845,0.57227 -11.4437,-3.36923 -22.8317,-6.72089 -33.6552,-12.03147 -35.5695,-17.45236 -70.9568,-35.24002 -105.6937,-54.30865 -5.2452,-2.8793 -10.9801,-4.82749 -16.3501,-8.29697 m 278.88547,-99.82284 c 2.3964,1.96166 8.6303,1.05599 9.6571,-0.99255 1.6026,-3.19714 -0.1849,-5.70048 -2.8517,-6.92132 -5.5286,-2.53083 -10.6518,-6.03983 -17.1423,-7.84169 -6.07977,-3.5385 -13.17697,-4.4836 -19.42547,-7.6158 -1.377,-0.69023 -2.9987,-2.03339 -4.5131,-0.30266 -1.311,1.49828 -1.3994,3.22801 -0.5705,5.12567 0.8211,1.87987 1.8651,3.4899 3.5029,4.74933 6.0001,4.61398 12.9627,7.40785 19.76357,10.50591 M 201.49928,316.48578 c 0,0 0.018,0.031 -0.1026,-0.67016 -2.8173,-5.96827 -7.0697,-10.53125 -13.4612,-12.50733 -7.0778,-2.1882 -11.3143,-0.36529 -12.6581,5.48007 -2.366,10.29181 -0.192,19.53223 7.7348,26.85022 3.3147,3.06009 7.2458,4.44168 11.9416,2.51667 9.3677,-3.84033 11.9411,-12.11667 6.5455,-21.66947 m 52.6892,-161.12056 c -10.573,-4.48077 -21.9221,-7.74296 -31.4742,-13.82658 -7.6877,-4.89615 -13.9069,-4.78839 -21.2864,-1.44379 -2.2703,1.02898 -4.6324,1.86708 -6.9854,2.69919 -3.2264,1.14092 -5.2488,2.97778 -5.7782,6.70224 -0.5283,3.71669 -1.3765,7.65887 -6.1694,8.9077 0.7449,1.49895 2.7398,2.0211 2.2245,3.99652 -1.681,1.22801 -4.4204,1.1454 -5.2431,3.90991 -1.8028,6.05815 -3.9772,12.00949 -5.6564,18.09917 -0.9408,3.41167 3.1014,8.47958 7.1575,9.56735 4.4012,1.18028 4.8526,-2.53697 6.0036,-5.08793 2.6122,-5.78988 4.2636,-11.90352 5.4078,-18.1392 0.607,-3.30795 2.2306,-4.27847 5.2509,-2.73497 3.7057,1.89382 7.3991,3.81186 11.1061,5.70325 2.1813,1.11299 2.4127,2.68573 1.7822,4.98882 -2.0184,7.3723 -3.7922,14.81167 -5.6499,22.22777 -1.7023,6.79579 -1.3977,7.76799 5.4737,9.41664 17.0891,4.10019 34.2527,7.90046 51.6213,10.65851 4.569,0.72552 5.3225,-0.31486 4.0077,-4.85303 -2.035,-7.02385 -4.8722,-14.08129 -4.4883,-21.35439 0.2372,-4.49214 -1.4096,-6.20343 -4.5946,-8.10138 -11.9135,-7.0993 -24.7476,-12.28991 -37.2267,-18.21815 -2.839,-1.3487 -6.0302,-2.17353 -8.7624,-4.97821 1.1694,0 1.6681,-0.11936 2.0823,0.0173 14.2588,4.70393 27.7807,11.05685 41.1137,17.92546 7.7084,3.97101 12.0485,9.99825 14.2065,18.18817 1.6923,6.42281 4.0242,12.67462 5.9451,19.04065 1.0285,3.40807 3.0104,5.01921 6.6357,4.38884 4.0854,-0.71034 8.2006,-1.26236 12.2672,-2.06381 3.2126,-0.63315 5.0359,-2.12085 3.6209,-5.93344 -1.325,-3.57038 -2.6331,-7.28588 -3.0352,-11.03546 -1.5943,-14.8664 -1.338,-16.56826 10.3246,-21.18726 0.5387,-0.21332 0.9445,-0.76192 1.7523,-1.4397 -17.6872,-7.8209 -33.134,-19.07893 -51.6334,-26.04016 m 120.93247,106.07411 c 2.7281,5.87922 6.0454,11.52259 7.4168,17.9524 0.7958,3.73089 -1.6334,5.5889 -4.5284,6.79886 -3.1553,1.31869 -3.5677,-1.72239 -4.3916,-3.43555 -1.7284,-3.59396 -3.0569,-7.37787 -4.6282,-11.05014 -2.18657,-5.11041 -4.51757,-6.34332 -9.79447,-4.48078 -13.9683,4.93036 -28.0519,9.48563 -42.2096,13.83805 -7.6185,2.34213 -7.5452,2.55017 -6.923,10.5263 0.031,0.39481 -0.3333,0.82044 -0.6385,1.51679 -4.2079,-2.46311 -4.4451,-7.01859 -6.0766,-10.61496 -2.2461,-4.95133 -1.5464,-5.9512 3.64,-7.33304 4.4959,-1.19788 9.0564,-2.13538 13.3992,-3.90311 3.1447,-1.28003 3.2421,-4.11694 3.4485,-6.65115 0.1996,-2.44925 -2.169,-1.96814 -3.7041,-2.21155 -1.2451,-0.19735 -2.2905,-0.77328 -2.8225,-1.84698 -1.9332,-3.90158 -5.0581,-3.14438 -8.1326,-2.06977 -9.4263,3.29471 -18.7931,6.76044 -28.2306,10.02222 -3.5977,1.24347 -7.1179,2.26642 -10.3685,4.5932 -7.5906,5.43323 -7.7508,5.20944 -3.6545,13.47281 3.1742,6.4032 7.7115,6.76007 11.7878,0.92713 3.6019,-5.15412 6.3453,-4.95688 9.2587,0.82208 0.8841,1.75366 1.1875,3.7901 1.9326,5.62573 2.323,5.72324 3.8907,11.86911 8.7713,17.11215 1.1941,-3.13269 0.1526,-4.97024 -1.0617,-6.71579 -1.5513,-2.23001 -2.536,-4.63974 -2.9075,-7.34103 -0.221,-1.60749 -1.1124,-3.24625 0.6366,-4.55121 3.087,-2.30328 5.9889,-0.38238 8.9404,0.39716 1.9843,0.52407 1.6209,2.07312 1.7256,3.58013 0.3632,5.22733 -1.8876,9.95151 -3.1028,14.86255 7.3562,1.52268 84.34197,-23.19842 90.96537,-29.19778 -1.3214,-1.97861 -2.6681,-4.03894 -4.0594,-6.06873 -2.4542,-3.58047 -4.8091,-7.22955 -5.972,-11.4559 -0.503,-1.82819 -0.2345,-4.00622 1.5081,-4.86743 2.225,-1.09967 2.9336,1.41254 4.2019,2.58484 1.2842,1.18692 0.1939,4.2203 3.0177,4.2287 1.0179,-1.19092 -0.076,-2.0582 -0.014,-2.99463 0.071,-1.06772 -0.7804,-2.26151 0.3986,-3.19592 4.3787,2.95278 6.0304,7.05966 3.8822,11.31381 -1.7145,3.39526 -0.5908,5.98559 1.0397,9.16729 3.358,-1.69903 7.963,-2.68463 6.4725,-7.31118 -1.7707,-5.49628 -3.4201,-11.11679 -5.7014,-16.41638 -4.4535,-10.34598 -10.0636,-17.34614 -23.976,-16.96407 -10.93047,0.30017 -20.56987,2.12253 -30.12057,6.52658 -7.9586,3.66988 -8.5046,5.8756 -4.0721,13.70558 1.2516,2.21097 2.6231,3.13004 5.2368,2.31641 6.5068,-2.02542 13.1671,-3.58869 19.593,-5.83252 4.67907,-1.63388 7.74857,-0.78302 9.81677,4.61883 m -30.18487,-70.03938 c 1.1427,-12.33812 -7.0643,-21.32739 -10.8195,-31.94772 -2.1892,0.93155 -1.5045,3.58197 -3.4117,4.18985 -1.9593,-2.68126 3.0982,-7.03572 -2.4302,-8.42568 -1.7236,1.2334 -1.8999,2.767 -1.1794,4.46621 0.6175,1.45636 2.3075,2.55085 1.3889,4.65507 -3.6644,1.19582 -5.7567,0.2565 -5.275,-4.07545 0.8818,-7.93055 -1.7302,-13.27665 -9.9698,-15.76287 -4.875,-1.47093 -9.3343,-4.33833 -13.9546,-6.63005 -10.818,-5.3658 -21.8062,-9.86543 -34.3372,-8.20341 -2.6082,0.34593 -5.347,0.15089 -7.9761,-0.18344 -10.5019,-1.33553 -20.8694,-1.20542 -31.0816,1.99627 -2.5884,0.81151 -5.7431,0.22284 -7.3869,3.17046 2.1354,3.14996 2.1866,3.03309 7.4148,5.32484 24.9332,10.92931 50.8936,19.65428 73.8046,34.93218 4.4501,2.96748 9.3522,6.08482 15.2895,5.15399 4.8198,-0.75562 5.3104,1.62297 4.4532,5.33092 -7.4716,1.23965 -14.0909,4.21679 -21.7522,6.25074 2.1161,2.76716 3.6001,4.9513 5.3377,6.91048 1.7021,1.91918 3.8299,2.14722 5.6637,0.2014 7.408,-7.8609 16.4492,-10.51294 27.0497,-8.55459 -9.1564,-14.28663 -9.1739,-14.35544 -4.1615,-17.67429 0.1047,6.50549 5.3007,9.80547 8.699,14.16495 1.3996,1.7955 2.0033,4.52339 4.6346,4.71014 M 62.289684,218.99452 c -1.5082,1.92886 0.2953,2.12683 1.404,2.60413 4.4306,1.90736 8.9865,3.55703 13.3011,5.69542 39.507796,19.58067 78.920996,39.35289 118.480496,58.82811 15.3593,7.5614 30.6344,15.36361 46.7831,21.20919 1.4707,0.53235 2.9437,1.57785 4.6536,-0.35174 -1.0337,-0.68613 -1.7616,-1.47656 -2.6348,-1.70041 -7.2121,-1.84879 -13.4271,-5.76865 -19.7441,-9.44608 -6.5431,-3.80908 -6.6335,-4.33709 -3.5615,-11.25915 0.1124,-0.25314 -0.075,-0.6391 -0.167,-1.27206 -0.9561,-0.57322 -2.0385,-1.31745 -3.2003,-1.90452 -16.9347,-8.55713 -33.9144,-17.02557 -50.8144,-25.65048 -24.1621,-12.33121 -48.4542,-24.4286 -72.307196,-37.33491 -9.746,-5.27341 -18.644,-7.5699 -28.342,-0.86306 -0.9222,0.63773 -2.1772,0.79412 -3.851,1.44556 m 247.345296,26.69919 c -3.6483,-2.30454 -7.4292,-2.49243 -11.464,-1.01094 -3.5879,1.31741 -7.4771,1.95068 -10.8783,3.61252 -7.498,3.66359 -15.3141,2.78666 -23.0353,1.99766 -15.6582,-1.59997 -31.2703,-3.65025 -46.903,-5.50073 -8.8682,-1.04973 -18.0232,-1.06003 -25.4116,-7.30339 -0.7448,-0.6294 -1.7546,-0.94392 -2.6385,-1.41008 -5.4408,-2.86934 -11.188,-5.28635 -16.2505,-8.71436 -8.1085,-5.49041 -11.0992,-15.07261 -16.6779,-22.61401 -0.3312,-0.44772 -0.3294,-1.37245 -0.1255,-1.94903 1.6905,-4.78152 -1.4353,-6.10851 -5.0135,-7.24193 -7.9438,-2.51624 -16.2494,-3.26387 -24.3405,-5.05492 -4.7559,-1.05278 -16.6183,3.87903 -19.5854,8.15907 1.0396,1.39397 2.4615,2.09554 4.1531,2.45476 7.9548,1.68936 15.9315,3.23662 24.0399,3.99574 5.2525,0.49176 10.0158,1.63149 13.0136,6.76732 2.3398,4.00847 5.454,7.55982 7.8808,11.52439 1.5505,2.53298 3.4423,4.40194 6.0675,5.69203 16.8786,8.29437 33.5078,17.15204 50.7056,24.71852 9.0861,3.99756 15.9767,8.76993 16.3376,19.25122 0.1179,3.42273 2.7389,1.99487 3.9177,3.19131 1.0394,1.05494 2.0499,-0.44091 2.5852,-1.41507 0.9519,-1.73226 1.0898,-3.57522 -0.3956,-5.08853 -1.3943,-1.42044 -3.0175,-2.61309 -4.4639,-3.98611 -3.0142,-2.86127 -2.6824,-5.84958 1.1595,-7.37708 8.2773,-3.29101 16.6436,-6.156 25.0685,-0.17187 11.7638,8.35583 23.8078,7.00509 36.1957,1.2865 7.1576,-3.3042 14.6454,-5.89337 22.0366,-8.82502 -1.3124,-2.89813 -3.5408,-3.49577 -5.9778,-4.98797 m -52.457,77.62439 c 1.0795,1.47796 2.3223,2.8649 3.2069,4.45154 2.3595,4.23162 5.5341,5.06134 10.0483,3.4111 7.3382,-2.68274 14.8197,-4.97812 22.2643,-7.36325 3.7407,-1.19843 4.249,-3.25012 1.9957,-6.30423 -4.6422,-6.29215 -9.2477,-12.6113 -13.8818,-18.90936 -1.7843,-2.42502 -3.85,-3.08139 -6.9397,-2.064 -6.471,2.13083 -12.5382,5.33307 -19.2093,6.93042 -4.353,1.04236 -6.2484,5.27445 -4.1512,9.05521 1.9338,3.48617 4.1467,6.81753 6.6668,10.79257 m 181.84837,-84.78713 c -6.2803,2.18628 -12.5427,4.4258 -18.8475,6.53887 -3.7754,1.26533 -5.0578,3.09741 -2.88,7.01715 3.7952,6.8309 7.2436,13.85684 10.7492,20.84531 1.4317,2.85418 3.2664,3.72787 6.4562,2.65561 7.0847,-2.3816 14.2955,-4.38556 21.4163,-6.66401 1.826,-0.58426 3.9615,-0.92633 4.957,-3.36407 -0.3842,-0.55487 -0.6997,-1.41803 -1.3167,-1.83832 -6.0153,-4.09702 -9.3233,-10.2514 -12.7695,-16.35644 -1.8646,-3.30333 -3.6646,-6.75509 -7.765,-8.8341 m -39.0686,58.01964 c 0.1464,-2.06207 -0.2958,-3.91293 -2.0052,-5.56665 -0.9124,0.21387 -1.8817,0.36759 -2.8032,0.66797 -18.4903,6.02683 -37.00567,11.97882 -55.44937,18.14539 -11.0331,3.68887 -21.935,7.76819 -32.9323,11.56631 -3.3789,1.16696 -4.4266,3.62528 -3.5483,6.62073 1.1031,3.7626 3.9571,1.38434 5.7916,0.83392 28.6647,-8.60043 56.8726,-18.57574 85.09537,-28.50302 2.0284,-0.7135 4.1398,-1.31464 5.8514,-3.76465 m -192.50927,-33.5437 c 3.6676,0.92209 5.87,3.3396 7.581,6.65216 1.8884,3.65604 4.0692,7.22742 7.5193,9.73947 2.2964,-1.17248 3.1226,-2.84152 2.1235,-5.00357 -3.4201,-7.40155 -6.1639,-14.67032 -15.234,-18.18374 -12.6855,-4.91382 -24.6439,-11.70705 -36.9044,-17.71451 -4.9333,-2.41731 -9.6542,-6.27226 -14.8113,-6.97263 -6.3335,-0.86011 -8.485,-4.96031 -11.3497,-9.12712 -2.3782,-3.45909 -3.8141,-7.67168 -7.5254,-10.15628 -3.0599,2.05014 -1.6809,4.16283 -0.7565,6.29077 4.4984,10.35506 12.9692,16.25589 22.7226,21.07883 15.3686,7.59955 31.0544,14.57683 46.6349,23.39662 m 158.4752,-48.35705 c -12.0595,-6.30404 -25.3834,-10.19886 -36.1358,-18.99956 -1.8988,-1.55416 -3.5794,-0.68216 -4.6184,1.05528 -1.65,2.75899 -3.9964,4.77159 -7.3754,6.95171 3.1197,1.37007 5.5622,3.41455 7.8679,3.27032 6.5208,-0.40787 11.2953,3.2094 16.5553,5.85036 2.3798,1.19488 4.7008,2.71225 7.2335,3.35838 7.3141,1.86597 12.492,9.01105 20.60527,8.25348 1.9462,1.73155 0.8428,4.63109 2.9014,6.46484 2.643,-2.07953 5.1279,-4.26886 7.8575,-6.09202 1.5652,-1.04552 3.4928,-2.39749 5.4706,-0.69252 1.8747,1.61609 2.2037,3.77374 1.0811,5.89441 -1.8678,3.52804 -0.1805,5.26935 2.9121,6.43168 2.2351,0.84005 4.4933,1.61867 6.5881,2.36982 -0.2283,-5.7078 -11.1795,-7.98482 -3.7953,-15.85344 -3.316,0.35485 -6.2722,-0.49298 -8.7901,-2.54561 -2.2273,3.68925 -5.3901,3.90817 -8.8282,3.19455 -0.733,-1.62757 1.1227,-1.52301 1.2786,-2.57051 -3.0614,-2.46947 -6.3576,-4.64589 -10.80817,-6.34117 m -238.7318,64.04797 c -2.009,-5.32944 -6.7431,-7.27963 -11.1621,-9.38928 -5.1076,-2.4383 -11.7288,1.37738 -12.1315,7.0065 -0.577,8.0657 1.3849,15.55316 6.3402,22.052 3.5009,4.5914 9.6636,5.83328 14.7845,3.21783 6.9667,-3.55819 8.1208,-10.09951 3.1769,-18.51465 m 13.6825,26.39225 c 1.7577,3.61364 3.839,6.98559 7.1366,9.43033 6.2996,4.67031 15.6166,0.41088 17.1895,-7.25467 1.8769,-9.14704 -2.7695,-15.71543 -7.888,-21.93796 -2.7179,-3.30429 -7.1322,-5.07715 -11.6851,-4.05988 -3.9959,0.89279 -6.1969,4.1937 -6.5748,7.9668 -0.5071,5.06375 -1.041,10.30948 1.8218,15.85538 m 87.049,-78.36536 c -0.2604,1.61891 -1.8273,3.60928 1.4825,4.04021 11.6607,1.51813 23.3117,3.11076 34.9617,4.70927 1.8934,0.2598 3.1882,-0.0738 3.7031,-2.21754 1.2956,-5.39402 -0.6734,-8.83872 -6.0301,-9.83583 -7.6473,-1.42354 -15.3273,-2.67047 -22.9917,-4.00292 -8.3653,-1.45428 -8.3644,-1.45927 -11.1255,7.30681 m 4.3483,104.20474 c -1.3803,-2.83218 -2.5652,-5.83395 -5.0287,-7.92535 -2.8429,-2.41354 -6.0013,-4.34207 -9.9603,-3.03833 -3.7172,1.22418 -5.7873,4.10187 -5.8505,7.86014 -0.1167,6.93829 0.1954,13.94201 3.9679,20.08816 2.6053,4.24442 7.8873,6.0687 12.1468,4.431 4.1303,-1.58795 7.4309,-4.39047 7.2574,-9.08462 -0.144,-3.89417 -0.2599,-7.98877 -2.5326,-12.331 m 100.7889,-89.85632 c 9.7042,-3.36578 19.4083,-6.73157 29.6878,-10.29692 -5.5643,-4.86533 -11.5004,-6.80147 -16.8219,-9.81865 -3.8464,-2.18075 -6.0731,-1.72351 -7.3034,2.75307 -1.4021,5.10156 -4.7301,8.13128 -10.1109,9.03699 -2.5871,0.43545 -5.1542,1.36758 -7.551,2.4661 -3.4263,1.57036 -2.6152,4.86553 -2.0208,7.45766 0.7301,3.18419 3.3252,1.84172 5.3243,1.25826 2.7088,-0.79059 5.3834,-1.69881 8.7959,-2.85651 m 94.24057,51.21109 c -1.1274,0.0143 -2.2988,0.39978 -3.3795,-0.40662 0.3366,-2.47207 2.2799,-2.83313 4.2093,-3.47113 7.8411,-2.59268 15.583,-5.48294 23.6115,-7.49673 2.6668,-0.66885 3.9559,-2.33927 2.9609,-5.21564 -1.0817,-3.12634 -3.0986,-2.13855 -5.2214,-1.31268 -5.1069,1.98678 -10.2596,3.85568 -15.3802,5.80792 -4.1814,1.59409 -8.0935,4.48065 -13.2226,1.96451 2.1625,8.8616 0.7335,16.42795 -4.2076,23.30289 3.2197,2.53048 4.6339,2.1412 15.6635,-4.21299 -3.7974,-0.35687 -7.2437,3.20368 -11.7743,2.17273 0.06,-3.30828 1.4814,-5.10525 4.6125,-5.50537 7.804,-0.99728 15.0079,-4.16235 22.4689,-6.37286 3.4875,-1.0333 5.6169,-3.99442 6.7782,-7.7825 -8.8767,2.83938 -17.561,5.84387 -27.1192,8.52847 M 166.14758,179.91319 c -0.3488,-2.40478 2.0723,-5.26243 -1.2362,-7.18886 -3.2739,-1.90622 -5.5514,0.3185 -8.1781,1.68932 -3.0693,1.60187 -6.363,2.76953 -9.5378,4.17435 -4.8115,2.12907 -9.8052,3.92579 -14.2909,7.46267 5.949,3.15161 12.2559,3.86838 18.2622,5.53549 9.197,2.55271 10.5797,1.83815 13.9316,-7.0603 0.4625,-1.2279 0.6859,-2.54585 1.0492,-4.61267 m 128.1465,157.0387 c 1.69,-3.73306 0.3823,-5.30725 -3.4033,-4.02945 -8.3439,2.81637 -16.586,5.93436 -24.8665,8.93789 -1.881,0.68229 -3.6696,2.03336 -2.8439,4.00443 1.8208,4.3468 -0.216,6.63782 -3.3521,9.14484 -1.6014,1.28021 -4.3469,3.01367 -3.0689,5.65652 1.3171,2.72339 4.2541,2.71256 7.041,2.47055 1.9877,-0.17261 3.7201,-0.65027 5.3585,-2.15253 -3.0885,-2.05367 -7.113,1.82673 -9.4129,-2.26791 0.3082,-2.25238 1.8837,-3.24481 4.0396,-3.56555 8.2615,-1.22891 15.6575,-5.37424 23.8396,-6.99133 3.7769,-0.74649 4.3246,-2.41739 3.9436,-5.55847 -8.1593,2.69067 -16.4655,5.42977 -24.7564,8.16381 -1.6409,-3.66235 0.2856,-4.2792 2.6249,-4.91501 8.3041,-2.25717 16.8693,-3.78869 24.8568,-8.89779 M 396.64735,226.24212 c -0.089,1.92478 0.6381,3.5308 1.804,5.03125 7.6523,9.8476 20.9726,11.78335 30.9997,4.48768 0.8183,-0.59543 1.8759,-1.21018 1.5229,-2.31438 -0.9416,-2.94499 -3.633,-4.14441 -6.0393,-5.5844 -1.858,-1.11186 -2.9562,-0.55101 -4.6057,1.0107 -5.8139,5.50473 -13.639,5.56679 -19.1483,0.41287 0.4582,-0.60199 1.2476,-1.17654 1.361,-1.86273 0.7664,-4.64104 3.0698,-5.75978 7.3099,-3.71391 1.6725,0.80697 3.5973,0.77594 4.7686,-2.01598 -4.6107,-3.11848 -10.336,-1.92883 -15.3879,-4.32231 2.0199,4.00293 -1.1512,5.75044 -2.5849,8.87121 m -160.11187,34.58413 c -1.5247,0.57345 -3.26,0.92181 -3.3712,3.79855 7.8805,3.96887 16.0178,7.92423 24.8123,10.39597 1.1425,0.32113 2.5436,0.21283 3.2395,-0.7815 1.8549,-2.65072 4.9554,-3.66366 7.6378,-5.79489 -4.004,-3.39484 -8.8498,-4.3381 -12.9871,-6.62506 -5.9564,-3.29236 -12.1905,-4.15265 -19.3313,-0.99307 m 55.3938,-35.00362 c -2.9392,0.5058 -5.8892,0.95609 -8.8152,1.52855 -6.8199,1.33423 -6.8246,1.3609 -4.746,8.22865 0.3351,1.10729 0.656,2.25862 1.233,3.24344 0.822,1.40311 2.1084,2.23645 3.7871,1.48107 7.3005,-3.28502 15.4662,-4.04751 22.6065,-7.7829 1.8366,-0.96077 3.8731,-1.75701 4.3706,-4.75031 -2.4759,0.59046 -4.5371,1.06561 -6.5895,1.57654 -1.71,0.42572 -3.628,0.66608 -4.3623,-1.22379 -1.4,-3.60359 -4.1059,-2.56707 -7.4842,-2.30125 m -45.1646,70.8177 c 1.2202,0.92154 2.6317,1.94715 4.0975,1.24244 5.0445,-2.42539 10.8537,-2.95044 15.8456,-6.28519 -4.652,-2.73264 -8.6692,-3.98038 -10.8521,2.5899 -7.7967,-7.33215 -18.9524,-6.96148 -26.0411,-14.67691 -2.5617,5.32535 -0.4143,7.63126 3.2662,9.50974 4.4303,2.26117 8.7154,4.80679 13.6839,7.62002 M 83.557884,258.36787 c 0.096,1.30075 1.7329,2.62888 -0.01,3.96192 -2.5835,-0.41156 -3.3399,-3.9339 -6.9091,-3.48523 0.812,6.53851 4.5763,10.78024 9.9122,13.87759 4.4321,2.5726 8.9092,0.8931 10.9936,-3.86261 0.6536,-1.49142 1.0563,-2.90487 -0.4198,-4.03836 -1.5103,-1.15979 -2.3885,0.18149 -3.3461,1.06497 -0.7651,0.70578 -1.5592,1.31214 -2.5167,0.28046 -0.551,-1.72943 2.0546,-2.7861 0.787,-4.918 -3.9734,0.0113 -5.0277,-2.85577 -4.9786,-6.2919 -2.765,-0.6088 -3.8542,0.34119 -3.5134,3.41116 m 319.038666,-9.42651 c -2.9724,1.64184 -0.8269,3.33633 0.01,4.93097 3.9912,7.62829 8.9333,14.74377 11.5455,23.11093 1.4212,4.55228 3.2088,4.58981 7.9854,0.62848 -5.018,-9.37415 -11.6305,-17.92865 -16.3146,-27.58963 -0.455,-0.93839 -1.4761,-1.29028 -3.2237,-1.08075 m -223.20927,93.23242 c -3.5136,-3.04681 -8.4773,-3.19259 -12.1345,-6.20673 -1.3808,-1.13803 -3.7317,0.11963 -5.0362,2.57865 8.6713,4.06695 16.632,9.08307 25.4663,12.29782 2.0527,0.74701 3.9086,-0.18332 4.1601,-2.78653 -1.2383,-1.75537 -3.0771,-1.83145 -4.846,-2.30896 -2.4741,-0.66785 -5.4104,-0.4303 -7.6097,-3.57425 m 40.1039,25.8382 c 2.0999,0.046 4.3625,0.58386 6.0755,-2.42838 -4.5453,-0.53241 -6.8558,-4.74939 -11.0042,-5.65906 -4.216,-0.9245 -8.0913,-2.83761 -11.6391,-4.95779 -3.0658,-1.83215 -4.9433,-1.32013 -7.3525,0.28925 1.0364,2.78457 3.4102,2.93212 5.3619,3.68588 6.2253,2.40448 12.8811,3.93021 18.5584,9.0701 M 80.758084,279.82173 c -2.1521,-2.30054 -4.3136,-4.58963 -7.2671,-5.62665 0.5902,-6.11221 -0.6833,-7.58569 -6.6374,-7.28201 4.4071,7.56927 9.4416,14.23318 15.5551,20.10681 1.2937,1.24295 2.4454,0.81763 3.4777,-0.19138 1.1816,-1.15493 0.9572,-2.57345 -0.1521,-3.52209 -1.3515,-1.15573 -2.9786,-1.9891 -4.9762,-3.48468 m 54.396496,44.51538 c 4.7603,2.4028 8.8516,6.26935 14.488,6.9827 0.9296,-3.23096 0.2859,-5.07251 -3.0475,-5.72174 -2.7671,-0.53891 -5.1617,-1.76178 -7.1203,-4.1594 -1.2624,-1.54541 -3.6278,-2.22226 -5.5513,-3.18335 -1.1882,-0.59369 -2.3128,-0.22567 -3.0978,0.81867 -0.963,1.28131 -0.086,2.212 0.8229,2.96896 0.8894,0.74082 1.9133,1.32013 3.506,2.29416 m 276.72827,-29.81119 c 2.9565,-0.90457 3.5258,-2.46518 1.8351,-5.19464 -2.4722,-3.991 -4.354,-4.10568 -10.0135,-0.87634 -2.7105,1.5466 -1.9104,3.50809 -1.3849,5.55917 0.5521,2.15525 1.9263,2.96204 4.1315,2.22577 1.5725,-0.52502 3.1793,-0.94699 5.4318,-1.71396 m -305.49487,14.45301 c 1.1326,0.59085 2.2263,1.60626 3.5377,0.34597 -1.3733,-4.32949 -18.242696,-17.83859 -22.965296,-17.16742 6.471,6.0803 12.1708,11.77289 19.427596,16.82145 m 149.5994,-22.03214 c 2.755,1.37784 4.385,-0.83679 6.4897,-1.73016 -0.5315,-2.20273 -1.7897,-3.95798 -3.607,-3.68268 -2.2618,0.34262 -3.3713,2.36908 -2.8827,5.41284 M 65.822784,258.545 c 0.9067,1.37106 2.1688,1.87381 3.0424,0.2817 1.0293,-1.87576 0.3506,-3.81329 -0.9202,-5.47387 -0.6188,-0.80863 -1.385,-1.53446 -2.4706,-0.97629 -1.4276,0.73401 -1.568,1.95538 -0.9506,3.33932 0.3323,0.745 0.647,1.49784 1.299,2.82914 m 70.382196,7.89294 c -4.7229,-2.0318 -8.8395,-5.42886 -14.117,-6.26157 4.2984,2.73337 8.7822,5.0961 13.284,7.42426 0.5328,0.2756 1.1983,0.80011 1.7123,-0.0176 0.081,-0.12887 -0.2817,-0.53668 -0.8793,-1.14511 m -13.7618,48.10126 c 0.3378,2.74103 2.1882,3.86127 4.6514,3.97018 1.0003,0.0442 1.9964,-1.00198 1.5069,-2.0198 -1.0702,-2.22571 -2.9307,-3.3646 -5.529,-2.7605 -0.1382,0.0321 -0.2427,0.20947 -0.6293,0.81012 m 118.6273,27.31601 c 1.3014,3.34643 0.5433,7.39828 3.5838,10.16092 0.1529,-4.8198 -1.936,-8.94919 -4.3841,-12.97574 0.2182,0.741 0.4364,1.48196 0.8003,2.81482 m -2.1673,25.18628 c 1.1034,3.91836 3.2408,3.15634 6.346,1.09591 -2.1034,-1.75427 -2.9425,-5.27658 -6.346,-1.09591 m -125.462,-54.59053 c 1.582,1.7157 3.4696,2.75971 6.3472,2.95261 -1.3724,-3.38947 -2.3833,-6.28912 -6.3472,-2.95261 m 137.9638,50.29904 c -1.1845,0.40052 -2.9026,0.4314 -2.5466,2.26807 0.2311,1.19199 1.5178,1.78708 2.6864,1.73813 1.3174,-0.0552 2.8026,-0.56543 3.0556,-2.00327 0.3124,-1.77426 -1.1301,-2.07702 -3.1954,-2.00293 m -8.8118,-86.24701 c -1.7669,-3.01962 -3.102,-1.31598 -4.6392,0.18015 1.2112,2.28537 2.5746,3.74615 5.431,3.22177 -0.2686,-1.01892 -0.5084,-1.92813 -0.7918,-3.40192 m -7.1616,93.78983 c -2.0262,-2.03806 -3.534,0.19321 -5.3705,0.25473 0.3722,2.25287 1.2706,3.60113 3.3206,3.32376 1.6064,-0.21732 2.7659,-1.14429 2.0499,-3.57849 m -82.7959,-40.54178 c 0.8102,3.56482 3.2134,3.8252 6.9807,4.07706 -1.8716,-3.70792 -3.9365,-4.54154 -6.9807,-4.07706 m 154.0382,-119.02591 c -0.7972,-2.09817 -0.016,-4.97888 -3.1482,-6.42767 -1.0024,3.37431 0.5209,5.68466 2.1579,7.82084 0.5825,0.76014 1.0325,-0.096 0.9903,-1.39317 m -22.0343,144.56955 c 2.387,0.84604 4.7691,1.63641 7.3072,-0.5704 -2.7326,-2.49066 -4.9617,-1.37702 -7.3072,0.5704 z"
   id="path1"
   sodipodi:nodetypes="cssscssssssscsssssssssscsssssssssssssscscccsssssssscsccsscsssscccssssccssssccssscsssssssssssccsssssssscccsssscsscssssssssssssscsssssccsssscscscssssscscccccscsssscscsssccscccsccscsscssscssssccsscsscsscsscsssscssssssssscccssssssssccssssscssccccssscsccscssssscssccsscsssccsssscccccccssssccsssssccsssssccsssssscccssssssccccssssccccsscccssscssccsssssscccscccccsssssccscccccscccccssssscssccscccsccccsssscccccsscsccscscscccssccccccssscccsssssccsssscccccccsccsssscccssccsssccccccccccccssscccccccsccccccscccc"
   style="fill:#3d5c52;fill-opacity:1" />






</svg>
