<svg height="24" viewBox="0 -960 960 960" width="24"><path d="M 104.7 -104.7 v -420.8 h 420.8 v 420.8 H 104.7 Z m 496.73 0 v -91 h 82.87 v 91 h -82.87 Z m -450.28 -91.95 H 480 V -440 H 151 Z M 764.3 -275.7 v -82.87 h 91 v 82.87 h -91 Z m 0 -162.87 v -82.86 h 91 v 82.86 h -91 Z M 104.7 -601.43 v -82.87 h 91 v 82.87 h -91 Z m 659.6 0 v -82.87 h 91 v 82.87 h -91 Z M 275.7 -764.3 v -91 h 82.87 v 91 H 275.7 Z m 162.87 0 v -91 h 82.86 v 91 h -82.86 Z m 162.86 0 v -91 h 82.87 v 91 h -82.87 Z m -496.73 0 v -91 h 91 v 91 h -91 Z m 750.6 0 h -91 v -91 h 91 v 91 Z m -91 659.6 v -91 h 91 v 91 h -91 Z"/></svg>